<?xml version="1.0" standalone="no"?>
<!DOCTYPE svg PUBLIC "-//W3C//DTD SVG 20010904//EN"
 "http://www.w3.org/TR/2001/REC-SVG-20010904/DTD/svg10.dtd">
<svg version="1.0" xmlns="http://www.w3.org/2000/svg"
 width="800.000000pt" height="800.000000pt" viewBox="0 0 800.000000 800.000000"
 preserveAspectRatio="xMidYMid meet">
<metadata>
Created by potrace 1.11, written by Peter Selinger 2001-2013
</metadata>
<g transform="translate(0.000000,800.000000) scale(0.100000,-0.100000)"
fill="#000000" stroke="none">
<path d="M3850 6989 c-239 -40 -453 -172 -597 -366 -29 -40 -53 -76 -53 -82 0
-21 -21 -19 -100 9 -244 90 -515 72 -745 -47 -213 -111 -382 -314 -454 -546
-29 -96 -36 -147 -36 -274 l0 -112 -66 -16 c-153 -38 -307 -126 -423 -242
-121 -121 -204 -267 -247 -438 -31 -125 -31 -303 1 -430 35 -143 112 -293 198
-387 l24 -26 -56 -68 c-69 -83 -148 -241 -176 -349 -124 -482 160 -977 639
-1115 44 -13 78 -27 75 -32 -10 -17 -6 -224 5 -283 39 -195 126 -360 260 -495
72 -72 182 -149 258 -181 26 -11 56 -24 65 -29 46 -25 191 -53 294 -56 126 -4
234 12 347 53 67 24 72 24 82 8 144 -248 368 -410 640 -466 85 -17 265 -14
360 6 165 35 322 118 453 239 33 30 147 175 154 195 1 6 42 -5 95 -24 434
-164 915 13 1138 418 75 136 106 255 111 422 l4 119 78 21 c326 88 573 334
664 661 18 65 22 107 22 229 1 173 -17 258 -83 398 -35 74 -120 202 -144 218
-5 4 0 13 10 20 37 27 120 145 165 234 58 118 89 241 94 375 14 429 -257 798
-676 922 -36 10 -44 17 -42 33 7 51 2 245 -7 290 -17 81 -18 88 -36 140 -105
305 -357 529 -685 606 -61 14 -271 18 -340 6 -72 -13 -181 -47 -232 -73 l-48
-24 -20 40 c-102 199 -279 362 -484 443 -37 16 -98 35 -135 43 -78 19 -274 26
-351 13z"/>
</g>
</svg>
